<?xml version="1.0" encoding="UTF-8"?>
<svg width="136px" height="33px" viewBox="0 0 136 33" version="1.1" xmlns="http://www.w3.org/2000/svg" xmlns:xlink="http://www.w3.org/1999/xlink">
    <!-- Generator: Sketch 51.3 (57544) - http://www.bohemiancoding.com/sketch -->
    <title>logo</title>
    <desc>Created with Sketch.</desc>
    <defs></defs>
    <g id="logo" stroke="none" stroke-width="1" fill="none" fill-rule="evenodd">
        <g id="logo_rencore" fill="#FFFFFF" fill-rule="nonzero">
            <g id="Group">
                <path d="M9.28762887,9.66185567 C5.17113402,8.57319588 0.204123711,11.7371134 0.102061856,15.785567 C0.102061856,15.8195876 0.0680412371,15.9556701 0.0680412371,15.9556701 C-0.272164948,20.4804124 1.4628866,26.0597938 6.39587629,29.8360825 C7.79072165,30.8907216 8.67525773,31.4010309 10.2742268,31.9453608 C9.21958763,31.2309278 8.19896907,30.856701 7.1443299,29.9041237 C5.27319588,28.2371134 4.7628866,27.4206186 3.94639175,25.7876289 C2.82371134,23.542268 3.12989691,20.9226804 3.53814433,19.7659794 C3.91237113,18.6092784 4.93298969,17.1463918 5.98762887,16.4319588 C6.12371134,16.3639175 6.2257732,16.2618557 6.32783505,16.1938144 C6.25979381,13.4041237 7.24639175,11.6350515 9.28762887,9.66185567" id="Shape"></path>
                <path d="M32.1154639,12.9278351 C32.0474227,12.5536082 32.0814433,12.5876289 31.9793814,12.2134021 C31.843299,11.771134 31.7072165,11.3628866 31.571134,10.9886598 C31.571134,11.0907216 31.571134,11.1927835 31.571134,11.2948454 C31.5371134,12.5195876 31.1628866,13.4381443 30.856701,14.0164948 C30.5505155,14.5948454 29.5639175,15.785567 27.6927835,16.7381443 C27.1824742,17.0103093 26.7061856,17.1804124 26.2979381,17.3164948 C26.2298969,18.4051546 26.0597938,19.1195876 25.685567,20.1061856 C29.3938144,19.085567 32.4896907,16.2278351 32.1154639,12.9278351" id="Shape"></path>
                <path d="M13.4381443,10.7505155 C13.6762887,10.9886598 13.8804124,11.1927835 14.1185567,11.4309278 C17.6907216,14.9690722 20.2762887,17.8948454 25.7536082,16.5680412 C30.856701,15.343299 32.0814433,10.9546392 30.3123711,7.68865979 C30.0402062,7.24639175 29.7340206,6.80412371 29.3938144,6.39587629 C28.543299,5.34123711 27.5907216,4.35463918 26.4340206,3.50412371 C19.2216495,-2.04123711 8.94742268,-0.646391753 3.36804124,6.53195876 C1.12268041,9.42371134 0.136082474,13.2340206 0.204123711,13.0298969 C0.95257732,11.3628866 2.21134021,10.1041237 3.36804124,9.42371134 C6.19175258,7.89278351 10.4103093,7.82474227 13.4381443,10.7505155 M32.6257732,13.642268 C32.8979381,16.6701031 30.1762887,19.7659794 26.3319588,20.7185567 C23.9164948,21.3309278 21.0927835,21.0927835 18.3030928,19.4597938 C10.5463918,14.9010309 7.41649485,16.0917526 5.20515464,18.9835052 C2.00721649,23.1680412 6.29381443,32.5237113 15.7175258,32.9659794 C15.7175258,32.9659794 15.7515464,32.9659794 15.7515464,32.9659794 C17.4525773,33.0340206 19.3237113,32.8298969 21.3309278,32.2515464 C21.8412371,32.0814433 22.385567,31.9113402 22.8618557,31.6731959 C25.4134021,30.5845361 27.6927835,28.8835052 29.4958763,26.5360825 C32.4216495,22.7257732 33.442268,18.0309278 32.6257732,13.642268" id="Shape"></path>
            </g>
            <g id="Group" transform="translate(40.000000, 8.000000)">
                <path d="M5.41276596,0 C8.06808511,0 10.0765957,0.466666667 11.4723404,1.36666667 C12.8680851,2.3 13.5829787,3.73333333 13.5829787,5.66666667 C13.5829787,6.86666667 13.3106383,7.86666667 12.7319149,8.6 C12.1531915,9.36666667 11.3361702,9.93333333 10.2808511,10.3666667 C10.6212766,10.8 10.9957447,11.3 11.4042553,11.8333333 C11.7787234,12.4 12.187234,12.9666667 12.5617021,13.5666667 C12.9361702,14.1666667 13.3106383,14.8 13.6510638,15.4666667 C13.9914894,16.1333333 14.3319149,16.7666667 14.6382979,17.4 L10.212766,17.4 C9.90638298,16.8333333 9.56595745,16.2666667 9.22553191,15.7 C8.88510638,15.1333333 8.54468085,14.5666667 8.20425532,14 C7.86382979,13.4666667 7.52340426,12.9333333 7.18297872,12.4333333 C6.84255319,11.9333333 6.50212766,11.5 6.16170213,11.1 L4.2212766,11.1 L4.2212766,17.4 L0.272340426,17.4 L0.272340426,0.4 C1.12340426,0.233333333 2.04255319,0.133333333 2.96170213,0.0666666667 C3.88085106,0.0333333333 4.69787234,0 5.41276596,0 Z M5.65106383,3.3 C5.3787234,3.3 5.10638298,3.3 4.86808511,3.33333333 C4.62978723,3.36666667 4.42553191,3.36666667 4.2212766,3.36666667 L4.2212766,8.03333333 L5.34468085,8.03333333 C6.84255319,8.03333333 7.89787234,7.86666667 8.54468085,7.5 C9.19148936,7.13333333 9.49787234,6.5 9.49787234,5.63333333 C9.49787234,4.8 9.15744681,4.2 8.5106383,3.83333333 C7.89787234,3.46666667 6.9106383,3.3 5.65106383,3.3 Z" id="Shape"></path>
                <path d="M15.693617,11 C15.693617,9.83333333 15.8638298,8.83333333 16.2382979,7.96666667 C16.612766,7.1 17.0893617,6.36666667 17.6680851,5.8 C18.2468085,5.23333333 18.9276596,4.76666667 19.7106383,4.46666667 C20.493617,4.16666667 21.2765957,4.03333333 22.093617,4.03333333 C24,4.03333333 25.4978723,4.6 26.587234,5.73333333 C27.6765957,6.86666667 28.2212766,8.53333333 28.2212766,10.7333333 C28.2212766,10.9333333 28.2212766,11.2 28.187234,11.4333333 C28.1531915,11.7 28.1531915,11.9333333 28.1531915,12.1333333 L19.5744681,12.1333333 C19.6425532,12.9 20.0170213,13.5 20.6638298,13.9333333 C21.3106383,14.3666667 22.1617021,14.6 23.2510638,14.6 C23.9319149,14.6 24.612766,14.5333333 25.293617,14.4 C25.9744681,14.2666667 26.5191489,14.1333333 26.9276596,13.9333333 L27.4382979,16.9333333 C27.2340426,17.0333333 26.9617021,17.1333333 26.6212766,17.2333333 C26.2808511,17.3333333 25.906383,17.4333333 25.4978723,17.5 C25.0893617,17.5666667 24.6468085,17.6333333 24.1702128,17.7 C23.693617,17.7333333 23.2170213,17.7666667 22.7404255,17.7666667 C21.5489362,17.7666667 20.493617,17.6 19.6085106,17.2333333 C18.7234043,16.9 17.9744681,16.4 17.3957447,15.8 C16.8170213,15.2 16.3744681,14.4666667 16.1021277,13.6333333 C15.8297872,12.8333333 15.693617,11.9666667 15.693617,11 Z M24.5787234,9.56666667 C24.5446809,9.26666667 24.5106383,8.93333333 24.4085106,8.63333333 C24.306383,8.33333333 24.1702128,8.06666667 23.9659574,7.83333333 C23.7617021,7.6 23.5234043,7.4 23.2170213,7.26666667 C22.9106383,7.13333333 22.5361702,7.03333333 22.1276596,7.03333333 C21.7191489,7.03333333 21.3446809,7.1 21.0382979,7.23333333 C20.7319149,7.36666667 20.493617,7.56666667 20.2893617,7.8 C20.0851064,8.03333333 19.9148936,8.3 19.812766,8.6 C19.7106383,8.9 19.6085106,9.23333333 19.5744681,9.53333333 L24.5787234,9.53333333 L24.5787234,9.56666667 Z" id="Shape"></path>
                <path d="M31.1489362,4.8 C31.7957447,4.63333333 32.612766,4.43333333 33.6340426,4.3 C34.6553191,4.13333333 35.7106383,4.06666667 36.8340426,4.06666667 C37.9574468,4.06666667 38.9106383,4.2 39.6595745,4.5 C40.4085106,4.8 41.0212766,5.2 41.4638298,5.73333333 C41.906383,6.26666667 42.212766,6.9 42.4170213,7.63333333 C42.587234,8.36666667 42.6893617,9.16666667 42.6893617,10.0666667 L42.6893617,17.4666667 L38.9106383,17.4666667 L38.9106383,10.5 C38.9106383,9.3 38.7404255,8.46666667 38.4340426,7.96666667 C38.1276596,7.46666667 37.5148936,7.23333333 36.6297872,7.23333333 C36.3574468,7.23333333 36.0851064,7.23333333 35.7787234,7.26666667 C35.4723404,7.3 35.2,7.33333333 34.9617021,7.36666667 L34.9617021,17.4666667 L31.1829787,17.4666667 L31.1829787,4.8 L31.1489362,4.8 Z" id="Shape"></path>
                <path d="M45.4808511,10.9 C45.4808511,9.96666667 45.6510638,9.06666667 45.9574468,8.23333333 C46.2638298,7.4 46.7404255,6.66666667 47.3191489,6.03333333 C47.8978723,5.4 48.6468085,4.93333333 49.4638298,4.56666667 C50.3148936,4.2 51.2680851,4.03333333 52.3574468,4.03333333 C53.0723404,4.03333333 53.7191489,4.1 54.2978723,4.23333333 C54.8765957,4.36666667 55.4553191,4.53333333 56.0340426,4.76666667 L55.2510638,7.73333333 C54.9106383,7.6 54.5021277,7.5 54.093617,7.4 C53.6851064,7.3 53.2085106,7.26666667 52.6638298,7.26666667 C51.5404255,7.26666667 50.7234043,7.6 50.1446809,8.3 C49.6,8.96666667 49.3276596,9.86666667 49.3276596,11 C49.3276596,12.1666667 49.6,13.1 50.1106383,13.7333333 C50.6212766,14.3666667 51.5404255,14.7 52.8,14.7 C53.2425532,14.7 53.7531915,14.6666667 54.2638298,14.5666667 C54.7744681,14.5 55.2851064,14.3666667 55.7276596,14.1666667 L56.2723404,17.2 C55.8297872,17.3666667 55.2851064,17.5333333 54.6042553,17.6666667 C53.9574468,17.8 53.2085106,17.8666667 52.4255319,17.8666667 C51.2,17.8666667 50.1446809,17.7 49.2595745,17.3333333 C48.3744681,16.9666667 47.6595745,16.5 47.0808511,15.8666667 C46.5021277,15.2666667 46.093617,14.5333333 45.8212766,13.7 C45.6170213,12.7666667 45.4808511,11.8666667 45.4808511,10.9 Z" id="Shape"></path>
                <path d="M70.706383,10.8666667 C70.706383,11.9 70.5702128,12.8333333 70.2638298,13.7 C69.9574468,14.5666667 69.5148936,15.3 68.9361702,15.9 C68.3574468,16.5 67.6765957,16.9666667 66.8595745,17.3 C66.0425532,17.6333333 65.1574468,17.8 64.1702128,17.8 C63.1829787,17.8 62.2978723,17.6333333 61.4808511,17.3 C60.6638298,16.9666667 59.9829787,16.5 59.4042553,15.9 C58.8255319,15.3 58.3829787,14.5666667 58.0425532,13.7 C57.7361702,12.8333333 57.5659574,11.9 57.5659574,10.8666667 C57.5659574,9.83333333 57.7361702,8.9 58.0765957,8.06666667 C58.4170213,7.23333333 58.8595745,6.5 59.4382979,5.9 C60.0170213,5.3 60.7319149,4.83333333 61.5148936,4.5 C62.3319149,4.16666667 63.1829787,4 64.1361702,4 C65.0893617,4 65.9744681,4.16666667 66.7914894,4.5 C67.6085106,4.83333333 68.2893617,5.3 68.8680851,5.9 C69.4468085,6.5 69.8893617,7.23333333 70.2297872,8.06666667 C70.5702128,8.9 70.706383,9.83333333 70.706383,10.8666667 Z M66.8255319,10.8666667 C66.8255319,9.73333333 66.587234,8.83333333 66.1106383,8.16666667 C65.6340426,7.5 64.987234,7.2 64.1021277,7.2 C63.2170213,7.2 62.5702128,7.53333333 62.093617,8.16666667 C61.6170213,8.83333333 61.3787234,9.73333333 61.3787234,10.8666667 C61.3787234,12 61.6170213,12.9333333 62.093617,13.6 C62.5702128,14.2666667 63.2510638,14.6 64.1021277,14.6 C64.9531915,14.6 65.6340426,14.2666667 66.1106383,13.6 C66.587234,12.9333333 66.8255319,12 66.8255319,10.8666667 Z" id="Shape"></path>
                <path d="M81.6680851,7.63333333 C81.3276596,7.56666667 80.9191489,7.46666667 80.4765957,7.36666667 C80.0340426,7.26666667 79.5234043,7.23333333 79.012766,7.23333333 C78.7744681,7.23333333 78.5021277,7.26666667 78.1617021,7.3 C77.8212766,7.33333333 77.5829787,7.4 77.412766,7.43333333 L77.412766,17.4333333 L73.6340426,17.4333333 L73.6340426,5.03333333 C74.3148936,4.8 75.0978723,4.56666667 76.0510638,4.36666667 C76.9702128,4.16666667 77.9914894,4.06666667 79.1489362,4.06666667 C79.3531915,4.06666667 79.5914894,4.06666667 79.8978723,4.1 C80.1702128,4.13333333 80.4765957,4.16666667 80.7489362,4.2 C81.0212766,4.23333333 81.3276596,4.3 81.6,4.33333333 C81.8723404,4.4 82.1446809,4.46666667 82.3489362,4.53333333 L81.6680851,7.63333333 Z" id="Shape"></path>
                <path d="M83.4382979,11 C83.4382979,9.83333333 83.6085106,8.83333333 83.9829787,7.96666667 C84.3574468,7.1 84.8340426,6.36666667 85.412766,5.8 C85.9914894,5.23333333 86.6723404,4.76666667 87.4553191,4.46666667 C88.2382979,4.16666667 89.0212766,4.03333333 89.8382979,4.03333333 C91.7446809,4.03333333 93.2425532,4.6 94.3319149,5.73333333 C95.4212766,6.86666667 95.9659574,8.53333333 95.9659574,10.7333333 C95.9659574,10.9333333 95.9659574,11.2 95.9319149,11.4333333 C95.8978723,11.7 95.8978723,11.9333333 95.8978723,12.1333333 L87.3191489,12.1333333 C87.387234,12.9 87.7617021,13.5 88.4085106,13.9333333 C89.0553191,14.3666667 89.906383,14.6 90.9957447,14.6 C91.6765957,14.6 92.3574468,14.5333333 93.0382979,14.4 C93.7191489,14.2666667 94.2638298,14.1333333 94.6723404,13.9333333 L95.1829787,16.9333333 C94.9787234,17.0333333 94.706383,17.1333333 94.3659574,17.2333333 C94.0255319,17.3333333 93.6510638,17.4333333 93.2425532,17.5 C92.8340426,17.5666667 92.3914894,17.6333333 91.9148936,17.7 C91.4382979,17.7333333 90.9617021,17.7666667 90.4851064,17.7666667 C89.293617,17.7666667 88.2382979,17.6 87.3531915,17.2333333 C86.4680851,16.9 85.7191489,16.4 85.1404255,15.8 C84.5617021,15.2 84.1191489,14.4666667 83.8468085,13.6333333 C83.5744681,12.8333333 83.4382979,11.9666667 83.4382979,11 Z M92.3574468,9.56666667 C92.3234043,9.26666667 92.2893617,8.93333333 92.187234,8.63333333 C92.0851064,8.33333333 91.9489362,8.06666667 91.7446809,7.83333333 C91.5404255,7.6 91.3021277,7.4 90.9957447,7.26666667 C90.6893617,7.13333333 90.3148936,7.03333333 89.906383,7.03333333 C89.4978723,7.03333333 89.1234043,7.1 88.8170213,7.23333333 C88.5106383,7.36666667 88.2723404,7.56666667 88.0680851,7.8 C87.8638298,8.03333333 87.693617,8.3 87.5914894,8.6 C87.4893617,8.9 87.387234,9.23333333 87.3531915,9.53333333 L92.3574468,9.53333333 L92.3574468,9.56666667 Z" id="Shape"></path>
            </g>
        </g>
    </g>
</svg>